<svg width="936" height="313" viewBox="0 0 936 313" fill="none" xmlns="http://www.w3.org/2000/svg">
<g clip-path="url(#clip0_2507_4)">
<path d="M120 0L240 115V180H120V300H0V115V57.5H40V76.6641L120 0Z" fill="#AACBBC"/>
<path d="M130 190H250V265.441V310H130V262V190Z" fill="#1A734A"/>
<path d="M140 95H100V135H140V95Z" fill="white"/>
<path d="M140 95H100V135H140V95Z" fill="white"/>
<path d="M210 250H170V310H210V250Z" fill="white"/>
<path d="M349.422 153.184V231.66H388.66C394.038 231.66 399.096 230.658 403.836 228.652C408.576 226.556 412.723 223.73 416.277 220.176C419.832 216.621 422.612 212.474 424.617 207.734C426.714 202.904 427.762 197.799 427.762 192.422C427.762 187.044 426.714 181.986 424.617 177.246C422.612 172.415 419.832 168.223 416.277 164.668C412.723 161.113 408.576 158.333 403.836 156.328C399.096 154.232 394.038 153.184 388.66 153.184H349.422ZM349.422 310H310.184V113.945H388.66C395.861 113.945 402.788 114.902 409.441 116.816C416.095 118.639 422.293 121.283 428.035 124.746C433.868 128.118 439.155 132.22 443.895 137.051C448.725 141.79 452.827 147.077 456.199 152.91C459.663 158.743 462.306 164.987 464.129 171.641C466.043 178.294 467 185.221 467 192.422C467 203.177 464.949 213.34 460.848 222.91C456.746 232.389 451.141 240.684 444.031 247.793C436.922 254.902 428.582 260.508 419.012 264.609C409.533 268.711 399.415 270.762 388.66 270.762H349.422V310ZM526.004 137.09C526.004 140.306 525.369 143.311 524.1 146.104C522.915 148.896 521.264 151.351 519.148 153.467C517.033 155.498 514.536 157.148 511.658 158.418C508.865 159.603 505.861 160.195 502.645 160.195C499.428 160.195 496.382 159.603 493.504 158.418C490.711 157.148 488.257 155.498 486.141 153.467C484.109 151.351 482.459 148.896 481.189 146.104C480.005 143.311 479.412 140.306 479.412 137.09C479.412 133.958 480.005 130.996 481.189 128.203C482.459 125.326 484.109 122.871 486.141 120.84C488.257 118.724 490.711 117.074 493.504 115.889C496.382 114.619 499.428 113.984 502.645 113.984C505.861 113.984 508.865 114.619 511.658 115.889C514.536 117.074 517.033 118.724 519.148 120.84C521.264 122.871 522.915 125.326 524.1 128.203C525.369 130.996 526.004 133.958 526.004 137.09ZM520.037 310H485.125V174.033H520.037V310ZM600.652 276.738C602.007 277.161 603.361 277.458 604.715 277.627C606.069 277.712 607.423 277.754 608.777 277.754C612.163 277.754 615.421 277.288 618.553 276.357C621.684 275.426 624.604 274.115 627.312 272.422C630.105 270.645 632.56 268.529 634.676 266.074C636.876 263.535 638.654 260.742 640.008 257.695L665.398 283.213C662.182 287.783 658.458 291.888 654.227 295.527C650.079 299.167 645.551 302.256 640.643 304.795C635.818 307.334 630.698 309.238 625.281 310.508C619.949 311.862 614.448 312.539 608.777 312.539C599.214 312.539 590.2 310.762 581.736 307.207C573.357 303.652 565.994 298.701 559.646 292.354C553.383 286.006 548.432 278.473 544.793 269.756C541.154 260.954 539.334 251.305 539.334 240.811C539.334 230.062 541.154 220.244 544.793 211.357C548.432 202.471 553.383 194.896 559.646 188.633C565.994 182.37 573.357 177.503 581.736 174.033C590.2 170.563 599.214 168.828 608.777 168.828C614.448 168.828 619.992 169.505 625.408 170.859C630.825 172.214 635.945 174.16 640.77 176.699C645.678 179.238 650.249 182.37 654.48 186.094C658.712 189.733 662.436 193.838 665.652 198.408L600.652 276.738ZM618.426 205.264C616.818 204.671 615.21 204.29 613.602 204.121C612.078 203.952 610.47 203.867 608.777 203.867C604.038 203.867 599.552 204.756 595.32 206.533C591.173 208.226 587.534 210.68 584.402 213.896C581.355 217.113 578.943 221.006 577.166 225.576C575.389 230.062 574.5 235.14 574.5 240.811C574.5 242.08 574.542 243.519 574.627 245.127C574.796 246.735 575.008 248.385 575.262 250.078C575.6 251.686 575.981 253.252 576.404 254.775C576.827 256.299 577.378 257.653 578.055 258.838L618.426 205.264ZM800.984 201.074L775.594 226.592C774.324 223.037 772.589 219.863 770.389 217.07C768.188 214.193 765.691 211.781 762.898 209.834C760.19 207.887 757.228 206.406 754.012 205.391C750.796 204.375 747.495 203.867 744.109 203.867C739.37 203.867 734.884 204.84 730.652 206.787C726.505 208.734 722.866 211.484 719.734 215.039C716.688 218.509 714.275 222.656 712.498 227.48C710.721 232.305 709.832 237.637 709.832 243.477C709.832 248.216 710.721 252.66 712.498 256.807C714.275 260.954 716.688 264.593 719.734 267.725C722.866 270.856 726.505 273.311 730.652 275.088C734.884 276.865 739.37 277.754 744.109 277.754C747.495 277.754 750.753 277.288 753.885 276.357C757.016 275.426 759.936 274.115 762.645 272.422C765.438 270.645 767.892 268.529 770.008 266.074C772.208 263.535 773.986 260.742 775.34 257.695L800.73 283.213C797.514 287.783 793.79 291.888 789.559 295.527C785.411 299.167 780.883 302.256 775.975 304.795C771.15 307.334 766.03 309.238 760.613 310.508C755.281 311.862 749.78 312.539 744.109 312.539C734.546 312.539 725.532 310.762 717.068 307.207C708.689 303.568 701.326 298.617 694.979 292.354C688.715 286.09 683.764 278.77 680.125 270.391C676.486 262.012 674.666 253.04 674.666 243.477C674.666 233.066 676.486 223.333 680.125 214.277C683.764 205.221 688.715 197.35 694.979 190.664C701.326 183.893 708.689 178.561 717.068 174.668C725.532 170.775 734.546 168.828 744.109 168.828C749.78 168.828 755.324 169.548 760.74 170.986C766.242 172.425 771.447 174.541 776.355 177.334C781.349 180.042 785.919 183.385 790.066 187.363C794.298 191.341 797.938 195.911 800.984 201.074ZM870.047 276.738C871.401 277.161 872.755 277.458 874.109 277.627C875.464 277.712 876.818 277.754 878.172 277.754C881.557 277.754 884.816 277.288 887.947 276.357C891.079 275.426 893.999 274.115 896.707 272.422C899.5 270.645 901.954 268.529 904.07 266.074C906.271 263.535 908.048 260.742 909.402 257.695L934.793 283.213C931.577 287.783 927.853 291.888 923.621 295.527C919.474 299.167 914.946 302.256 910.037 304.795C905.213 307.334 900.092 309.238 894.676 310.508C889.344 311.862 883.842 312.539 878.172 312.539C868.608 312.539 859.594 310.762 851.131 307.207C842.752 303.652 835.389 298.701 829.041 292.354C822.778 286.006 817.827 278.473 814.188 269.756C810.548 260.954 808.729 251.305 808.729 240.811C808.729 230.062 810.548 220.244 814.188 211.357C817.827 202.471 822.778 194.896 829.041 188.633C835.389 182.37 842.752 177.503 851.131 174.033C859.594 170.563 868.608 168.828 878.172 168.828C883.842 168.828 889.386 169.505 894.803 170.859C900.219 172.214 905.34 174.16 910.164 176.699C915.073 179.238 919.643 182.37 923.875 186.094C928.107 189.733 931.831 193.838 935.047 198.408L870.047 276.738ZM887.82 205.264C886.212 204.671 884.604 204.29 882.996 204.121C881.473 203.952 879.865 203.867 878.172 203.867C873.432 203.867 868.947 204.756 864.715 206.533C860.568 208.226 856.928 210.68 853.797 213.896C850.75 217.113 848.338 221.006 846.561 225.576C844.783 230.062 843.895 235.14 843.895 240.811C843.895 242.08 843.937 243.519 844.021 245.127C844.191 246.735 844.402 248.385 844.656 250.078C844.995 251.686 845.376 253.252 845.799 254.775C846.222 256.299 846.772 257.653 847.449 258.838L887.82 205.264Z" fill="#1A734A"/>
</g>
<defs>
<clipPath id="clip0_2507_4">
<rect width="936" height="313" fill="white"/>
</clipPath>
</defs>
</svg>
